<svg width="335" height="60" viewBox="0 0 335 60" fill="none" xmlns="http://www.w3.org/2000/svg">
<path d="M21.978 0L43.9561 41.3253H34.4743L31.2954 35.1868H12.6059L9.53661 41.3253H0L21.978 0ZM27.13 27.7877L21.978 17.3194L16.8809 27.7877H27.13ZM46.3676 37.3243L50.6427 31.6243C51.9581 32.5377 53.4927 33.305 55.2466 33.9262C57.0004 34.5474 58.7177 34.8579 60.3985 34.8579C61.6408 34.8579 62.6731 34.6022 63.4952 34.0906C64.3173 33.5791 64.7284 32.9397 64.7284 32.1723C64.7284 31.405 64.2625 30.8661 63.3308 30.5555C62.399 30.2449 61.4947 30.0257 60.6178 29.8978C59.7408 29.7699 59.1745 29.6877 58.9187 29.6512C56.7264 29.2858 54.8355 28.8473 53.2461 28.3358C51.6566 27.8242 50.2134 26.9108 48.9162 25.5954C47.6191 24.28 46.9705 22.4713 46.9705 20.1694C46.9705 16.3693 48.3499 13.8299 51.1086 12.5511C53.8672 11.2722 56.635 10.6328 59.412 10.6328C61.787 10.6328 63.9793 10.9799 65.9889 11.6741C67.9986 12.3684 69.9899 13.4645 71.963 14.9626L67.688 20.553C66.263 19.7126 64.8562 19.0367 63.4678 18.5251C62.0793 18.0136 60.636 17.7578 59.1379 17.7578C58.2245 17.7578 57.3384 17.9588 56.4797 18.3607C55.6211 18.7626 55.1918 19.3107 55.1918 20.005C55.1918 20.8819 55.7855 21.503 56.973 21.8684C58.1605 22.2338 59.4668 22.5079 60.8918 22.6905C63.4495 23.129 65.4957 23.5857 67.0303 24.0608C68.5649 24.5358 69.926 25.4218 71.1135 26.7189C72.301 28.0161 72.8948 29.8521 72.8948 32.2272C72.8948 35.3695 71.8169 37.7902 69.6611 39.4892C67.5053 41.1883 64.4543 42.0378 60.5081 42.0378C55.0273 42.0378 50.3138 40.4666 46.3676 37.3243ZM99.97 26.1435V41.3253H91.3103V26.1435L75.5256 1.31539H85.6651L95.6401 17.4838L105.725 1.31539H115.864L99.97 26.1435ZM122.359 39.9277C119.856 38.521 117.874 36.6118 116.412 34.2002C114.951 31.7887 114.22 29.1579 114.22 26.3079C114.22 23.4944 114.951 20.8819 116.412 18.4703C117.874 16.0588 119.856 14.1496 122.359 12.7429C124.862 11.3361 127.593 10.6328 130.553 10.6328C133.513 10.6328 136.253 11.3361 138.774 12.7429C141.295 14.1496 143.296 16.0588 144.776 18.4703C146.255 20.8819 146.995 23.4944 146.995 26.3079C146.995 29.1579 146.255 31.7887 144.776 34.2002C143.296 36.6118 141.295 38.521 138.774 39.9277C136.253 41.3344 133.513 42.0378 130.553 42.0378C127.593 42.0378 124.862 41.3344 122.359 39.9277ZM126.387 18.9362C125.109 19.6852 124.104 20.7083 123.373 22.0054C122.642 23.3026 122.277 24.7367 122.277 26.3079C122.277 27.9521 122.633 29.4228 123.346 30.7199C124.058 32.0171 125.045 33.0401 126.305 33.7892C127.566 34.5382 128.982 34.9128 130.553 34.9128C132.088 34.9128 133.485 34.5382 134.746 33.7892C136.006 33.0401 137.002 32.0079 137.733 30.6925C138.464 29.3771 138.829 27.9156 138.829 26.3079C138.829 24.7367 138.464 23.3026 137.733 22.0054C137.002 20.7083 136.006 19.6852 134.746 18.9362C133.485 18.1872 132.088 17.8126 130.553 17.8126C129.055 17.8126 127.666 18.1872 126.387 18.9362ZM153.079 29.1031V11.2905H161.355V29.1031C161.355 31.2589 161.894 32.8026 162.972 33.7344C164.05 34.6661 165.466 35.132 167.219 35.132C168.754 35.132 170.124 34.5382 171.33 33.3507C172.536 32.1632 173.084 30.1262 172.974 27.2396V11.2905H181.196V41.3253H172.974V38.7493C171.988 39.7724 170.791 40.5671 169.384 41.1335C167.978 41.6998 166.489 41.983 164.918 41.983C157.025 41.983 153.079 37.6897 153.079 29.1031ZM224.823 42.8051L213.368 19.0184L201.803 42.8051L185.799 1.31539H195.117L202.845 22.0877L213.368 0.27404L223.891 22.0877L231.783 1.31539H240.991L224.823 42.8051ZM266.203 38.3109C265.509 39.2609 264.312 40.1104 262.613 40.8594C260.914 41.6085 259.06 41.983 257.05 41.983C253.944 41.983 251.249 41.2888 248.966 39.9003C246.682 38.5118 244.937 36.6209 243.732 34.2277C242.526 31.8344 241.923 29.1762 241.923 26.2531C241.923 23.33 242.526 20.6718 243.732 18.2785C244.937 15.8852 246.682 13.9943 248.966 12.6059C251.249 11.2174 253.944 10.5232 257.05 10.5232C259.133 10.5232 260.969 10.8794 262.558 11.5919C264.148 12.3044 265.363 13.2088 266.203 14.3049V11.1809H274.315V41.3253H266.203V38.3109ZM264.285 20.0872C262.787 18.4977 260.777 17.703 258.256 17.703C255.698 17.703 253.679 18.4977 252.199 20.0872C250.72 21.6766 249.98 23.7319 249.98 26.2531C249.98 28.7012 250.738 30.7291 252.254 32.3368C253.771 33.9445 255.771 34.7483 258.256 34.7483C260.813 34.7483 262.832 33.9902 264.312 32.4738C265.792 30.9574 266.532 28.8839 266.532 26.2531C266.532 23.7319 265.783 21.6766 264.285 20.0872ZM307.665 13.9761C309.547 16.2049 310.488 19.3838 310.488 23.5127V41.3253H302.102V23.5127C302.102 19.4569 300.166 17.429 296.293 17.429C294.794 17.429 293.443 18.0227 292.237 19.2102C291.031 20.3977 290.465 22.453 290.538 25.3761V41.3253H282.371V11.1809H290.538V13.8664C291.524 12.8799 292.767 12.0943 294.265 11.5097C295.763 10.9251 297.206 10.6328 298.595 10.6328C302.76 10.6328 305.784 11.7472 307.665 13.9761ZM328.629 30.5829C328.629 31.8618 328.849 32.9305 329.287 33.7892C329.725 34.6479 330.749 35.0772 332.356 35.0772C333.087 35.0772 333.781 35.0406 334.439 34.9676V41.8734C333.124 42.0195 331.9 42.0926 330.767 42.0926C328.428 42.0926 326.538 41.9008 325.094 41.5171C323.651 41.1335 322.527 40.3936 321.724 39.2974C320.92 38.2012 320.518 36.6301 320.518 34.5839V17.8674H316.846V10.6876H320.518V2.63079H328.629V10.6876H334.658V17.8674H328.629V30.5829Z" fill="#F4ECD6"/>
<path d="M32.8121 57.9155C32.495 58.3012 32.1106 58.6077 31.6589 58.8349C31.2071 59.0621 30.709 59.1757 30.1648 59.1757C29.6945 59.1757 29.2533 59.0899 28.8412 58.9181C28.429 58.7464 28.0697 58.5126 27.7632 58.2167C27.4567 57.9208 27.215 57.5733 27.038 57.1744C26.861 56.7755 26.7725 56.3461 26.7725 55.8864C26.7725 55.4267 26.861 54.9974 27.038 54.5984C27.215 54.1995 27.4567 53.8508 27.7632 53.5522C28.0697 53.2537 28.429 53.0198 28.8412 52.8508C29.2533 52.6817 29.6945 52.5971 30.1648 52.5971C30.709 52.5971 31.2071 52.7107 31.6589 52.9379C32.1106 53.1652 32.4871 53.4611 32.7883 53.8257L31.9402 54.6975C31.7447 54.4175 31.4924 54.1916 31.1833 54.0198C30.8742 53.8481 30.5347 53.7623 30.1648 53.7623C29.8689 53.7623 29.5902 53.8191 29.3286 53.9327C29.067 54.0463 28.8385 54.1995 28.643 54.3924C28.4475 54.5852 28.2929 54.8098 28.1793 55.0661C28.0657 55.3224 28.0089 55.5958 28.0089 55.8864C28.0089 56.1718 28.0657 56.4426 28.1793 56.6988C28.2929 56.9551 28.4475 57.1797 28.643 57.3726C28.8385 57.5654 29.067 57.7187 29.3286 57.8323C29.5902 57.9459 29.8689 58.0027 30.1648 58.0027C30.5558 58.0027 30.9019 57.9142 31.2031 57.7372C31.5043 57.5601 31.7553 57.3263 31.9561 57.0357L32.8121 57.9155ZM44.2652 55.8864C44.2652 56.3409 44.1767 56.7689 43.9997 57.1704C43.8226 57.572 43.5809 57.9208 43.2744 58.2167C42.968 58.5126 42.6113 58.7464 42.2044 58.9181C41.7975 59.0899 41.3643 59.1757 40.9046 59.1757C40.4448 59.1757 40.0102 59.0899 39.6007 58.9181C39.1912 58.7464 38.8332 58.5126 38.5267 58.2167C38.2203 57.9208 37.9785 57.5733 37.8015 57.1744C37.6245 56.7755 37.536 56.3461 37.536 55.8864C37.536 55.4267 37.6245 54.9961 37.8015 54.5945C37.9785 54.1929 38.2203 53.8442 38.5267 53.5483C38.8332 53.2523 39.1912 53.0198 39.6007 52.8508C40.0102 52.6817 40.4448 52.5971 40.9046 52.5971C41.3643 52.5971 41.7975 52.6817 42.2044 52.8508C42.6113 53.0198 42.968 53.2537 43.2744 53.5522C43.5809 53.8508 43.8226 54.1995 43.9997 54.5984C44.1767 54.9974 44.2652 55.4267 44.2652 55.8864ZM43.0287 55.8864C43.0287 55.5958 42.9732 55.3224 42.8623 55.0661C42.7513 54.8098 42.5994 54.5852 42.4065 54.3924C42.2137 54.1995 41.9878 54.0463 41.7289 53.9327C41.4699 53.8191 41.1952 53.7623 40.9046 53.7623C40.6086 53.7623 40.3312 53.8191 40.0723 53.9327C39.8134 54.0463 39.5875 54.1995 39.3946 54.3924C39.2018 54.5852 39.0499 54.8098 38.9389 55.0661C38.8279 55.3224 38.7725 55.5958 38.7725 55.8864C38.7725 56.1718 38.8279 56.4439 38.9389 56.7028C39.0499 56.9617 39.2018 57.1876 39.3946 57.3805C39.5875 57.5733 39.8134 57.7266 40.0723 57.8402C40.3312 57.9538 40.6086 58.0106 40.9046 58.0106C41.1952 58.0106 41.4699 57.9538 41.7289 57.8402C41.9878 57.7266 42.2137 57.5733 42.4065 57.3805C42.5994 57.1876 42.7513 56.9617 42.8623 56.7028C42.9732 56.4439 43.0287 56.1718 43.0287 55.8864ZM56.1304 59.0568H54.9257V54.8243L52.9283 58.1929L51.0102 54.7926V59.0568H49.8055V52.716H51.1925L52.9521 55.8626L54.7909 52.716H56.1304V59.0568ZM68.3999 55.8864C68.3999 56.3409 68.3114 56.7689 68.1344 57.1704C67.9574 57.572 67.7156 57.9208 67.4092 58.2167C67.1027 58.5126 66.746 58.7464 66.3391 58.9181C65.9323 59.0899 65.499 59.1757 65.0393 59.1757C64.5796 59.1757 64.145 59.0899 63.7354 58.9181C63.3259 58.7464 62.9679 58.5126 62.6615 58.2167C62.355 57.9208 62.1133 57.5733 61.9362 57.1744C61.7592 56.7755 61.6707 56.3461 61.6707 55.8864C61.6707 55.4267 61.7592 54.9961 61.9362 54.5945C62.1133 54.1929 62.355 53.8442 62.6615 53.5483C62.9679 53.2523 63.3259 53.0198 63.7354 52.8508C64.145 52.6817 64.5796 52.5971 65.0393 52.5971C65.499 52.5971 65.9323 52.6817 66.3391 52.8508C66.746 53.0198 67.1027 53.2537 67.4092 53.5522C67.7156 53.8508 67.9574 54.1995 68.1344 54.5984C68.3114 54.9974 68.3999 55.4267 68.3999 55.8864ZM67.1634 55.8864C67.1634 55.5958 67.108 55.3224 66.997 55.0661C66.886 54.8098 66.7341 54.5852 66.5413 54.3924C66.3484 54.1995 66.1225 54.0463 65.8636 53.9327C65.6047 53.8191 65.3299 53.7623 65.0393 53.7623C64.7434 53.7623 64.466 53.8191 64.207 53.9327C63.9481 54.0463 63.7222 54.1995 63.5294 54.3924C63.3365 54.5852 63.1846 54.8098 63.0736 55.0661C62.9627 55.3224 62.9072 55.5958 62.9072 55.8864C62.9072 56.1718 62.9627 56.4439 63.0736 56.7028C63.1846 56.9617 63.3365 57.1876 63.5294 57.3805C63.7222 57.5733 63.9481 57.7266 64.207 57.8402C64.466 57.9538 64.7434 58.0106 65.0393 58.0106C65.3299 58.0106 65.6047 57.9538 65.8636 57.8402C66.1225 57.7266 66.3484 57.5733 66.5413 57.3805C66.7341 57.1876 66.886 56.9617 66.997 56.7028C67.108 56.4439 67.1634 56.1718 67.1634 55.8864ZM74.9626 59.0568C74.9626 59.1836 74.9442 59.3039 74.9072 59.4175C74.8702 59.5311 74.816 59.6315 74.7447 59.7187C74.6734 59.8058 74.5835 59.8745 74.4752 59.9247C74.3669 59.9749 74.2414 60 74.0987 60C74.0459 60 73.9944 59.9947 73.9442 59.9842C73.894 59.9736 73.8477 59.963 73.8055 59.9525V59.8653C73.9587 59.8389 74.0829 59.7675 74.178 59.6513C74.2731 59.535 74.3206 59.4003 74.3206 59.2471C74.3206 59.2206 74.318 59.1889 74.3127 59.1519C74.3074 59.115 74.2995 59.0833 74.2889 59.0568H73.7817V57.8759H74.9626V59.0568ZM93.3906 57.9155C93.0736 58.3012 92.6892 58.6077 92.2374 58.8349C91.7856 59.0621 91.2876 59.1757 90.7433 59.1757C90.2731 59.1757 89.8319 59.0899 89.4197 58.9181C89.0076 58.7464 88.6482 58.5126 88.3418 58.2167C88.0353 57.9208 87.7935 57.5733 87.6165 57.1744C87.4395 56.7755 87.351 56.3461 87.351 55.8864C87.351 55.4267 87.4395 54.9974 87.6165 54.5984C87.7935 54.1995 88.0353 53.8508 88.3418 53.5522C88.6482 53.2537 89.0076 53.0198 89.4197 52.8508C89.8319 52.6817 90.2731 52.5971 90.7433 52.5971C91.2876 52.5971 91.7856 52.7107 92.2374 52.9379C92.6892 53.1652 93.0657 53.4611 93.3669 53.8257L92.5188 54.6975C92.3233 54.4175 92.071 54.1916 91.7618 54.0198C91.4527 53.8481 91.1132 53.7623 90.7433 53.7623C90.4474 53.7623 90.1687 53.8191 89.9072 53.9327C89.6456 54.0463 89.4171 54.1995 89.2216 54.3924C89.026 54.5852 88.8715 54.8098 88.7579 55.0661C88.6443 55.3224 88.5875 55.5958 88.5875 55.8864C88.5875 56.1718 88.6443 56.4426 88.7579 56.6988C88.8715 56.9551 89.026 57.1797 89.2216 57.3726C89.4171 57.5654 89.6456 57.7187 89.9072 57.8323C90.1687 57.9459 90.4474 58.0027 90.7433 58.0027C91.1344 58.0027 91.4805 57.9142 91.7817 57.7372C92.0828 57.5601 92.3338 57.3263 92.5346 57.0357L93.3906 57.9155ZM104.17 52.716V56.1559C104.17 56.5786 104.107 56.9723 103.98 57.3369C103.853 57.7015 103.669 58.0198 103.429 58.292C103.189 58.5641 102.895 58.7781 102.549 58.934C102.203 59.0899 101.808 59.1678 101.364 59.1678C100.931 59.1678 100.54 59.0912 100.191 58.9379C99.8424 58.7847 99.5452 58.5747 99.2995 58.3078C99.0538 58.041 98.8649 57.7266 98.7328 57.3646C98.6007 57.0027 98.5346 56.613 98.5346 56.1955V52.716H99.7632V56.2035C99.7632 56.4465 99.7975 56.6751 99.8662 56.8891C99.9349 57.1031 100.035 57.2893 100.167 57.4479C100.299 57.6064 100.465 57.7319 100.663 57.8243C100.861 57.9168 101.087 57.963 101.34 57.963C101.61 57.963 101.844 57.9194 102.042 57.8323C102.24 57.7451 102.404 57.6235 102.533 57.4677C102.663 57.3118 102.761 57.1282 102.827 56.9168C102.893 56.7054 102.926 56.473 102.926 56.2193V52.716H104.17ZM115.813 59.0568H114.466L113.879 57.7887H110.804L110.21 59.0568H108.862L111.858 52.716H112.817L115.813 59.0568ZM113.396 56.7662L112.342 54.4835L111.272 56.7662H113.396ZM126.307 59.0568H125.103L122.241 54.6103V59.0568H121.037V52.716H122.416L125.103 56.8534V52.716H126.307V59.0568ZM137.721 55.8864C137.721 56.325 137.647 56.7358 137.499 57.1189C137.351 57.502 137.145 57.8375 136.881 58.1255C136.616 58.4135 136.301 58.6407 135.934 58.8072C135.566 58.9736 135.166 59.0568 134.733 59.0568H132.085V52.716H134.733C135.166 52.716 135.566 52.8006 135.934 52.9697C136.301 53.1387 136.616 53.366 136.881 53.6513C137.145 53.9366 137.351 54.2722 137.499 54.6579C137.647 55.0436 137.721 55.4531 137.721 55.8864ZM136.476 55.8547C136.482 55.5588 136.437 55.2788 136.342 55.0146C136.247 54.7504 136.109 54.5192 135.93 54.321C135.75 54.1229 135.529 53.967 135.268 53.8534C135.006 53.7398 134.712 53.683 134.384 53.683H133.314V58.0106H134.384C134.706 58.0106 134.996 57.9564 135.252 57.8481C135.508 57.7398 135.726 57.5892 135.906 57.3963C136.085 57.2035 136.224 56.9763 136.322 56.7147C136.42 56.4531 136.471 56.1665 136.476 55.8547ZM149.753 55.8864C149.753 56.3409 149.664 56.7689 149.487 57.1704C149.31 57.572 149.068 57.9208 148.762 58.2167C148.455 58.5126 148.099 58.7464 147.692 58.9181C147.285 59.0899 146.852 59.1757 146.392 59.1757C145.932 59.1757 145.498 59.0899 145.088 58.9181C144.679 58.7464 144.321 58.5126 144.014 58.2167C143.708 57.9208 143.466 57.5733 143.289 57.1744C143.112 56.7755 143.023 56.3461 143.023 55.8864C143.023 55.4267 143.112 54.9961 143.289 54.5945C143.466 54.1929 143.708 53.8442 144.014 53.5483C144.321 53.2523 144.679 53.0198 145.088 52.8508C145.498 52.6817 145.932 52.5971 146.392 52.5971C146.852 52.5971 147.285 52.6817 147.692 52.8508C148.099 53.0198 148.455 53.2537 148.762 53.5522C149.068 53.8508 149.31 54.1995 149.487 54.5984C149.664 54.9974 149.753 55.4267 149.753 55.8864ZM148.516 55.8864C148.516 55.5958 148.461 55.3224 148.35 55.0661C148.239 54.8098 148.087 54.5852 147.894 54.3924C147.701 54.1995 147.475 54.0463 147.216 53.9327C146.957 53.8191 146.683 53.7623 146.392 53.7623C146.096 53.7623 145.819 53.8191 145.56 53.9327C145.301 54.0463 145.075 54.1995 144.882 54.3924C144.689 54.5852 144.537 54.8098 144.426 55.0661C144.315 55.3224 144.26 55.5958 144.26 55.8864C144.26 56.1718 144.315 56.4439 144.426 56.7028C144.537 56.9617 144.689 57.1876 144.882 57.3805C145.075 57.5733 145.301 57.7266 145.56 57.8402C145.819 57.9538 146.096 58.0106 146.392 58.0106C146.683 58.0106 146.957 57.9538 147.216 57.8402C147.475 57.7266 147.701 57.5733 147.894 57.3805C148.087 57.1876 148.239 56.9617 148.35 56.7028C148.461 56.4439 148.516 56.1718 148.516 55.8864ZM168.141 52.7239L165.557 56.465V59.0648H164.313V56.4492L161.864 52.7239H163.29L164.939 55.3871L166.659 52.7239H168.141ZM186.125 55.8864C186.125 56.325 186.051 56.7358 185.903 57.1189C185.755 57.502 185.549 57.8375 185.285 58.1255C185.021 58.4135 184.705 58.6407 184.338 58.8072C183.97 58.9736 183.57 59.0568 183.137 59.0568H180.49V52.716H183.137C183.57 52.716 183.97 52.8006 184.338 52.9697C184.705 53.1387 185.021 53.366 185.285 53.6513C185.549 53.9366 185.755 54.2722 185.903 54.6579C186.051 55.0436 186.125 55.4531 186.125 55.8864ZM184.881 55.8547C184.886 55.5588 184.841 55.2788 184.746 55.0146C184.651 54.7504 184.513 54.5192 184.334 54.321C184.154 54.1229 183.934 53.967 183.672 53.8534C183.41 53.7398 183.116 53.683 182.788 53.683H181.718V58.0106H182.788C183.111 58.0106 183.4 57.9564 183.656 57.8481C183.912 57.7398 184.13 57.5892 184.31 57.3963C184.49 57.2035 184.628 56.9763 184.726 56.7147C184.824 56.4531 184.875 56.1665 184.881 55.8547ZM198.157 55.8864C198.157 56.3409 198.068 56.7689 197.891 57.1704C197.714 57.572 197.472 57.9208 197.166 58.2167C196.86 58.5126 196.503 58.7464 196.096 58.9181C195.689 59.0899 195.256 59.1757 194.796 59.1757C194.336 59.1757 193.902 59.0899 193.492 58.9181C193.083 58.7464 192.725 58.5126 192.418 58.2167C192.112 57.9208 191.87 57.5733 191.693 57.1744C191.516 56.7755 191.428 56.3461 191.428 55.8864C191.428 55.4267 191.516 54.9961 191.693 54.5945C191.87 54.1929 192.112 53.8442 192.418 53.5483C192.725 53.2523 193.083 53.0198 193.492 52.8508C193.902 52.6817 194.336 52.5971 194.796 52.5971C195.256 52.5971 195.689 52.6817 196.096 52.8508C196.503 53.0198 196.86 53.2537 197.166 53.5522C197.472 53.8508 197.714 54.1995 197.891 54.5984C198.068 54.9974 198.157 55.4267 198.157 55.8864ZM196.92 55.8864C196.92 55.5958 196.865 55.3224 196.754 55.0661C196.643 54.8098 196.491 54.5852 196.298 54.3924C196.105 54.1995 195.879 54.0463 195.62 53.9327C195.361 53.8191 195.087 53.7623 194.796 53.7623C194.5 53.7623 194.223 53.8191 193.964 53.9327C193.705 54.0463 193.479 54.1995 193.286 54.3924C193.093 54.5852 192.941 54.8098 192.83 55.0661C192.719 55.3224 192.664 55.5958 192.664 55.8864C192.664 56.1718 192.719 56.4439 192.83 56.7028C192.941 56.9617 193.093 57.1876 193.286 57.3805C193.479 57.5733 193.705 57.7266 193.964 57.8402C194.223 57.9538 194.5 58.0106 194.796 58.0106C195.087 58.0106 195.361 57.9538 195.62 57.8402C195.879 57.7266 196.105 57.5733 196.298 57.3805C196.491 57.1876 196.643 56.9617 196.754 56.7028C196.865 56.4439 196.92 56.1718 196.92 55.8864ZM208.968 59.0568H207.763L204.902 54.6103V59.0568H203.697V52.716H205.076L207.763 56.8534V52.716H208.968V59.0568ZM220.381 55.8864C220.381 56.325 220.307 56.7358 220.159 57.1189C220.011 57.502 219.805 57.8375 219.541 58.1255C219.277 58.4135 218.961 58.6407 218.594 58.8072C218.227 58.9736 217.826 59.0568 217.393 59.0568H214.746V52.716H217.393C217.826 52.716 218.227 52.8006 218.594 52.9697C218.961 53.1387 219.277 53.366 219.541 53.6513C219.805 53.9366 220.011 54.2722 220.159 54.6579C220.307 55.0436 220.381 55.4531 220.381 55.8864ZM219.137 55.8547C219.142 55.5588 219.097 55.2788 219.002 55.0146C218.907 54.7504 218.77 54.5192 218.59 54.321C218.41 54.1229 218.19 53.967 217.928 53.8534C217.667 53.7398 217.372 53.683 217.044 53.683H215.974V58.0106H217.044C217.367 58.0106 217.656 57.9564 217.912 57.8481C218.169 57.7398 218.387 57.5892 218.566 57.3963C218.746 57.2035 218.885 56.9763 218.982 56.7147C219.08 56.4531 219.132 56.1665 219.137 55.8547ZM230.107 59.0568H225.922V52.7239H230.107V53.7385H227.126V55.2523H230.067V56.2431H227.126V57.9868H230.107V59.0568ZM249.177 55.8864C249.177 56.2616 249.117 56.6169 248.998 56.9525C248.879 57.288 248.709 57.5958 248.487 57.8759L249.121 58.502L248.392 59.2312L247.742 58.5733C247.472 58.7583 247.177 58.9036 246.854 59.0093C246.532 59.115 246.191 59.1678 245.832 59.1678C245.372 59.1678 244.94 59.0819 244.536 58.9102C244.132 58.7385 243.778 58.5033 243.474 58.2048C243.17 57.9062 242.931 57.5588 242.756 57.1625C242.582 56.7662 242.495 56.3409 242.495 55.8864C242.495 55.432 242.582 55.0053 242.756 54.6064C242.931 54.2074 243.17 53.8587 243.474 53.5601C243.778 53.2616 244.132 53.0265 244.536 52.8547C244.94 52.683 245.372 52.5971 245.832 52.5971C246.291 52.5971 246.725 52.683 247.132 52.8547C247.538 53.0265 247.894 53.2616 248.198 53.5601C248.501 53.8587 248.741 54.2074 248.915 54.6064C249.089 55.0053 249.177 55.432 249.177 55.8864ZM247.98 55.8864C247.98 55.5958 247.923 55.321 247.809 55.0621C247.696 54.8032 247.542 54.576 247.35 54.3805C247.157 54.185 246.929 54.0304 246.668 53.9168C246.406 53.8032 246.128 53.7464 245.832 53.7464C245.536 53.7464 245.258 53.8032 244.999 53.9168C244.741 54.0304 244.513 54.185 244.318 54.3805C244.122 54.576 243.969 54.8032 243.858 55.0621C243.747 55.321 243.692 55.5958 243.692 55.8864C243.692 56.177 243.747 56.4518 243.858 56.7107C243.969 56.9696 244.122 57.1955 244.318 57.3884C244.513 57.5813 244.741 57.7345 244.999 57.8481C245.258 57.9617 245.536 58.0185 245.832 58.0185C246.033 58.0185 246.224 57.9921 246.406 57.9393C246.589 57.8864 246.762 57.8124 246.926 57.7173L246.331 57.1387L247.06 56.4095L247.647 57.0119C247.869 56.6685 247.98 56.2933 247.98 55.8864ZM260.273 52.716V56.1559C260.273 56.5786 260.21 56.9723 260.083 57.3369C259.956 57.7015 259.772 58.0198 259.532 58.292C259.291 58.5641 258.998 58.7781 258.652 58.934C258.306 59.0899 257.911 59.1678 257.467 59.1678C257.034 59.1678 256.643 59.0912 256.294 58.9379C255.945 58.7847 255.648 58.5747 255.402 58.3078C255.157 58.041 254.968 57.7266 254.836 57.3646C254.704 57.0027 254.638 56.613 254.638 56.1955V52.716H255.866V56.2035C255.866 56.4465 255.9 56.6751 255.969 56.8891C256.038 57.1031 256.138 57.2893 256.27 57.4479C256.402 57.6064 256.568 57.7319 256.766 57.8243C256.964 57.9168 257.19 57.963 257.443 57.963C257.713 57.963 257.947 57.9194 258.145 57.8323C258.343 57.7451 258.507 57.6235 258.636 57.4677C258.766 57.3118 258.863 57.1282 258.929 56.9168C258.996 56.7054 259.029 56.473 259.029 56.2193V52.716H260.273ZM267.121 59.0568H265.892V52.7239H267.121V59.0568ZM277.084 59.0568H272.899V52.7239H277.084V53.7385H274.104V55.2523H277.044V56.2431H274.104V57.9868H277.084V59.0568ZM287.396 59.0568H286.04L285.589 57.6143C285.541 57.4558 285.482 57.3105 285.41 57.1784C285.339 57.0463 285.253 56.9327 285.153 56.8375C285.052 56.7424 284.932 56.6685 284.792 56.6156C284.652 56.5628 284.487 56.5364 284.297 56.5364H283.837V59.0568H282.624V52.7239L285.129 52.716C285.398 52.716 285.649 52.7623 285.882 52.8547C286.114 52.9472 286.315 53.0753 286.484 53.2391C286.653 53.4029 286.785 53.5958 286.881 53.8177C286.976 54.0397 287.023 54.2801 287.023 54.539C287.023 54.7239 286.994 54.9036 286.936 55.078C286.878 55.2523 286.796 55.4135 286.69 55.5615C286.585 55.7094 286.459 55.8402 286.314 55.9538C286.169 56.0674 286.009 56.1533 285.834 56.2114C286.035 56.2854 286.199 56.3924 286.326 56.5324C286.453 56.6724 286.553 56.8402 286.627 57.0357C286.664 57.1255 286.698 57.2154 286.73 57.3052C286.762 57.395 286.795 57.4888 286.829 57.5866C286.863 57.6843 286.9 57.79 286.94 57.9036C286.98 58.0172 287.023 58.1427 287.071 58.2801C287.129 58.4545 287.183 58.6037 287.233 58.7279C287.283 58.8521 287.338 58.9617 287.396 59.0568ZM285.787 54.6262C285.787 54.4782 285.759 54.3435 285.704 54.222C285.648 54.1004 285.573 53.9947 285.478 53.9049C285.383 53.8151 285.27 53.7451 285.141 53.6949C285.011 53.6447 284.873 53.6196 284.725 53.6196H283.837V55.5932H284.725C284.873 55.5932 285.011 55.5707 285.141 55.5258C285.27 55.4809 285.383 55.4161 285.478 55.3316C285.573 55.2471 285.648 55.1453 285.704 55.0265C285.759 54.9076 285.787 54.7741 285.787 54.6262ZM299.134 59.0568H297.787L297.2 57.7887H294.125L293.531 59.0568H292.183L295.179 52.716H296.138L299.134 59.0568ZM296.717 56.7662L295.663 54.4835L294.593 56.7662H296.717ZM308.59 57.3924C308.59 57.6301 308.538 57.856 308.435 58.07C308.332 58.284 308.188 58.4729 308.003 58.6368C307.818 58.8006 307.599 58.9313 307.346 59.0291C307.092 59.1268 306.812 59.1757 306.505 59.1757C306.231 59.1757 305.984 59.1599 305.764 59.1282C305.545 59.0965 305.339 59.0463 305.146 58.9776C304.953 58.9089 304.768 58.8204 304.591 58.7121C304.414 58.6037 304.231 58.4729 304.04 58.3197L304.912 57.4399C305.166 57.6513 305.414 57.8006 305.657 57.8877C305.9 57.9749 306.165 58.0185 306.45 58.0185C306.566 58.0185 306.676 58.0014 306.779 57.967C306.882 57.9327 306.972 57.8864 307.048 57.8283C307.125 57.7702 307.186 57.7015 307.231 57.6222C307.276 57.543 307.298 57.4558 307.298 57.3607C307.298 57.2603 307.28 57.1704 307.243 57.0912C307.206 57.0119 307.139 56.9353 307.044 56.8613C306.949 56.7873 306.817 56.7121 306.648 56.6354C306.479 56.5588 306.262 56.473 305.998 56.3778C305.766 56.2933 305.542 56.1969 305.328 56.0885C305.114 55.9802 304.927 55.8494 304.766 55.6962C304.604 55.543 304.475 55.3633 304.377 55.1572C304.28 54.9512 304.231 54.7081 304.231 54.428C304.231 54.1586 304.285 53.9102 304.393 53.683C304.501 53.4558 304.649 53.2616 304.837 53.1004C305.025 52.9393 305.244 52.8138 305.495 52.7239C305.746 52.6341 306.017 52.5892 306.307 52.5892C306.793 52.5892 307.203 52.6526 307.536 52.7794C307.869 52.9062 308.165 53.0912 308.423 53.3342L307.567 54.1982C307.409 54.0449 307.232 53.9274 307.036 53.8455C306.841 53.7636 306.611 53.7226 306.347 53.7226C306.225 53.7226 306.113 53.7411 306.01 53.7781C305.907 53.8151 305.818 53.864 305.745 53.9247C305.671 53.9855 305.611 54.0568 305.566 54.1387C305.521 54.2206 305.499 54.3065 305.499 54.3963C305.499 54.4967 305.52 54.5879 305.562 54.6698C305.604 54.7517 305.676 54.8309 305.776 54.9076C305.877 54.9842 306.01 55.0608 306.176 55.1374C306.343 55.214 306.55 55.2973 306.799 55.3871C307.116 55.4981 307.388 55.6196 307.615 55.7517C307.842 55.8838 308.027 56.0291 308.17 56.1876C308.313 56.3461 308.418 56.5245 308.487 56.7226C308.556 56.9208 308.59 57.144 308.59 57.3924Z" fill="#393E46"/>
</svg>
