<svg width="502" height="250" viewBox="0 0 502 250" fill="none" xmlns="http://www.w3.org/2000/svg">
<rect width="502" height="250" fill="#00ABD5"/>
<path d="M330.314 84.7131C324.163 81.6135 317.959 78.5832 311.722 75.5859L311.377 81.7784L295.086 80.9702C289.488 80.7273 283.887 80.5225 278.285 80.3612C277.648 80.3431 277.011 80.3402 276.374 80.3232C276.385 79.7601 276.417 79.1948 276.414 78.6333C276.281 75.7889 276.329 72.9386 275.931 70.1029C275.477 64.4138 274.177 58.7801 272.365 53.3336C268.738 42.4056 261.418 32.6367 251.874 26.1366C247.125 22.8575 241.907 20.3279 236.505 18.4362C235.161 17.939 233.797 17.5099 232.418 17.1307C231.051 16.7057 229.664 16.3684 228.274 16.0451L226.793 15.69L226.041 15.5437C225.001 12.0818 218.456 8.35699 210.116 8.03561C200.323 7.56341 192.669 11.8737 193.31 15.8525C193.928 19.8075 201.021 22.1356 209.48 22.5535C216.686 22.826 222.94 21.677 225.34 18.9229L226.064 19.0632L227.486 19.4048C228.821 19.7152 230.153 20.0383 231.459 20.4458C232.78 20.8085 234.084 21.2185 235.364 21.6933C240.517 23.4979 245.454 25.8969 249.915 28.9775C258.87 35.096 265.666 44.1374 269.106 54.4679C270.815 59.6205 272.065 64.9754 272.497 70.4496C272.883 73.1645 272.832 75.927 272.963 78.67C272.966 79.1992 272.935 79.7261 272.925 80.2547C263.503 80.0346 254.075 79.9151 244.638 80.0613C242.173 80.108 239.708 80.1697 237.242 80.2438C237.721 74.5869 235.589 68.7048 231.77 64.5778C227.703 60.0934 222.253 57.2808 216.619 55.7544C210.96 54.2773 204.991 53.9646 199.236 55.0208C187.663 56.8329 177.091 64.8405 172.419 75.6232C169.98 80.9468 168.677 86.6529 168.246 92.4283C167.78 98.2758 168.896 104.326 171.563 109.602C174.197 114.904 178.227 119.373 182.841 122.881C187.468 126.403 192.677 129.037 198.094 130.948C208.943 134.79 220.714 135.713 232.048 133.847C243.378 132.044 254.341 126.818 262.461 118.458C266.439 114.209 269.582 109.242 271.89 103.934L273.411 99.8703C273.915 98.5149 274.164 97.0874 274.551 95.6988C275.394 92.925 275.585 90.0438 276.053 87.2085C276.132 86.0659 276.199 84.919 276.262 83.7726C276.903 83.7897 277.544 83.7926 278.186 83.8109C283.77 83.9715 289.354 84.1758 294.936 84.418L311.185 85.2241L310.839 91.4166C317.297 89.133 323.784 86.885 330.314 84.7131ZM272.619 86.8558C272.169 89.5351 272 92.2796 271.2 94.8768C270.834 96.1798 270.606 97.5302 270.131 98.7957L268.71 102.593C266.554 107.538 263.644 112.137 259.963 116.076C252.443 123.807 242.217 128.737 231.474 130.444C220.745 132.216 209.497 131.334 199.241 127.693C194.12 125.887 189.227 123.406 184.942 120.143C180.663 116.891 177.008 112.81 174.65 108.058C172.263 103.326 171.268 97.9625 171.689 92.6633C172.086 87.3012 173.32 81.9253 175.55 77.0754C179.842 67.2358 189.255 60.1134 199.836 58.4193C205.087 57.4493 210.575 57.7444 215.723 59.0872C220.853 60.4707 225.725 63.0368 229.204 66.886C232.539 70.5417 234.293 75.4584 233.768 80.3765C226.158 80.6687 218.545 81.1722 210.932 82.2514C208.123 82.667 205.315 83.1707 202.513 83.8977C201.112 84.2505 199.714 84.6985 198.321 85.2263C196.756 85.841 195.218 86.6418 193.935 87.7081C192.675 88.763 191.633 90.2669 191.622 91.9629C191.667 93.6203 191.835 95.3287 192.478 96.9121C193.065 98.5756 193.903 99.9415 194.919 101.137C195.905 102.379 197.133 103.367 198.395 104.258C203.599 107.671 210.006 108.417 215.854 107.172C221.752 105.961 227.092 102.436 230.715 97.6965C232.543 95.3327 233.934 92.6797 234.99 89.938C235.771 87.8911 236.385 85.844 236.79 83.7065C239.424 83.6239 242.06 83.5611 244.692 83.5119C254.057 83.3668 263.433 83.4853 272.809 83.704C272.752 84.7555 272.69 85.8069 272.619 86.8558ZM233.224 83.8544C232.86 85.5032 232.368 87.1482 231.77 88.6964C230.818 91.1676 229.581 93.5223 227.98 95.5908C224.805 99.7323 220.222 102.749 215.126 103.799C210.084 104.891 204.524 104.174 200.317 101.391C199.305 100.668 198.321 99.8891 197.57 98.9277C196.769 98.0017 196.151 96.9181 195.8 95.9554C195.371 94.9418 195.242 93.8375 195.166 92.7507C195.104 91.6251 195.844 90.6479 196.694 89.9957C197.566 89.3257 198.548 88.8487 199.582 88.4385C200.805 87.9773 202.074 87.5657 203.387 87.2363C206.002 86.5571 208.71 86.068 211.435 85.6655C218.617 84.6455 225.909 84.1498 233.224 83.8544Z" fill="#F4ECD6"/>
<path d="M64.9111 158.571L92.8221 211.053H80.7807L76.7437 203.257H53.0088L49.111 211.053H37L64.9111 158.571ZM71.4538 193.86L64.9111 180.566L58.4379 193.86H71.4538ZM95.8847 205.972L101.314 198.733C102.984 199.893 104.933 200.867 107.16 201.656C109.388 202.445 111.569 202.839 113.703 202.839C115.281 202.839 116.592 202.515 117.636 201.865C118.68 201.215 119.202 200.403 119.202 199.429C119.202 198.454 118.61 197.77 117.427 197.375C116.244 196.981 115.095 196.703 113.982 196.54C112.868 196.378 112.149 196.273 111.824 196.227C109.04 195.763 106.638 195.206 104.62 194.557C102.601 193.907 100.769 192.747 99.1213 191.076C97.474 189.406 96.6503 187.109 96.6503 184.186C96.6503 179.36 98.402 176.135 101.905 174.511C105.409 172.887 108.924 172.075 112.45 172.075C115.467 172.075 118.251 172.515 120.803 173.397C123.355 174.279 125.884 175.671 128.39 177.573L122.961 184.673C121.151 183.606 119.364 182.747 117.601 182.097C115.838 181.448 114.005 181.123 112.102 181.123C110.942 181.123 109.817 181.378 108.727 181.889C107.636 182.399 107.091 183.095 107.091 183.977C107.091 185.09 107.845 185.879 109.353 186.343C110.861 186.807 112.52 187.155 114.33 187.387C117.578 187.944 120.176 188.524 122.125 189.127C124.074 189.731 125.803 190.856 127.311 192.503C128.819 194.15 129.573 196.482 129.573 199.498C129.573 203.489 128.204 206.563 125.466 208.721C122.729 210.879 118.854 211.957 113.842 211.957C106.882 211.957 100.896 209.962 95.8847 205.972ZM163.957 191.772V211.053H152.96V191.772L132.914 160.242H145.791L158.458 180.775L171.265 160.242H184.142L163.957 191.772ZM192.39 209.278C189.212 207.491 186.694 205.067 184.838 202.004C182.982 198.942 182.054 195.601 182.054 191.981C182.054 188.408 182.982 185.09 184.838 182.028C186.694 178.965 189.212 176.541 192.39 174.754C195.569 172.968 199.037 172.075 202.796 172.075C206.555 172.075 210.035 172.968 213.237 174.754C216.438 176.541 218.979 178.965 220.858 182.028C222.737 185.09 223.677 188.408 223.677 191.981C223.677 195.601 222.737 198.942 220.858 202.004C218.979 205.067 216.438 207.491 213.237 209.278C210.035 211.064 206.555 211.957 202.796 211.957C199.037 211.957 195.569 211.064 192.39 209.278ZM197.506 182.619C195.882 183.571 194.606 184.87 193.678 186.517C192.75 188.165 192.286 189.986 192.286 191.981C192.286 194.069 192.738 195.937 193.643 197.584C194.548 199.232 195.801 200.531 197.402 201.482C199.003 202.433 200.801 202.909 202.796 202.909C204.745 202.909 206.52 202.433 208.121 201.482C209.722 200.531 210.986 199.22 211.914 197.549C212.842 195.879 213.306 194.023 213.306 191.981C213.306 189.986 212.842 188.165 211.914 186.517C210.986 184.87 209.722 183.571 208.121 182.619C206.52 181.668 204.745 181.193 202.796 181.193C200.893 181.193 199.13 181.668 197.506 182.619ZM231.403 195.531V172.91H241.913V195.531C241.913 198.269 242.598 200.229 243.967 201.412C245.335 202.596 247.133 203.187 249.361 203.187C251.31 203.187 253.05 202.433 254.581 200.925C256.112 199.417 256.808 196.83 256.669 193.164V172.91H267.11V211.053H256.669V207.781C255.416 209.08 253.897 210.09 252.11 210.809C250.324 211.528 248.433 211.888 246.437 211.888C236.415 211.888 231.403 206.436 231.403 195.531ZM322.514 212.932L307.967 182.724L293.281 212.932L272.956 160.242H284.789L294.603 186.622L307.967 158.919L321.331 186.622L331.354 160.242H343.047L322.514 212.932ZM375.065 207.224C374.183 208.431 372.664 209.51 370.506 210.461C368.348 211.412 365.993 211.888 363.441 211.888C359.497 211.888 356.075 211.006 353.175 209.243C350.275 207.48 348.059 205.078 346.527 202.039C344.996 199 344.231 195.624 344.231 191.912C344.231 188.199 344.996 184.824 346.527 181.784C348.059 178.745 350.275 176.344 353.175 174.58C356.075 172.817 359.497 171.935 363.441 171.935C366.086 171.935 368.418 172.388 370.436 173.293C372.455 174.197 373.998 175.346 375.065 176.738V172.771H385.366V211.053H375.065V207.224ZM372.629 184.081C370.726 182.063 368.174 181.053 364.973 181.053C361.724 181.053 359.161 182.063 357.281 184.081C355.402 186.1 354.462 188.71 354.462 191.912C354.462 195.021 355.425 197.596 357.351 199.638C359.277 201.679 361.817 202.7 364.973 202.7C368.221 202.7 370.784 201.737 372.664 199.812C374.543 197.886 375.483 195.253 375.483 191.912C375.483 188.71 374.531 186.1 372.629 184.081ZM427.72 176.32C430.11 179.151 431.305 183.188 431.305 188.431V211.053H420.655V188.431C420.655 183.281 418.196 180.705 413.277 180.705C411.375 180.705 409.658 181.459 408.127 182.967C406.595 184.476 405.876 187.086 405.969 190.798V211.053H395.598V172.771H405.969V176.181C407.222 174.928 408.8 173.931 410.702 173.188C412.605 172.446 414.438 172.075 416.201 172.075C421.491 172.075 425.33 173.49 427.72 176.32ZM454.344 197.41C454.344 199.034 454.622 200.392 455.179 201.482C455.736 202.573 457.035 203.118 459.077 203.118C460.005 203.118 460.886 203.071 461.722 202.979V211.749C460.051 211.934 458.497 212.027 457.058 212.027C454.088 212.027 451.687 211.783 449.854 211.296C448.021 210.809 446.594 209.869 445.574 208.477C444.553 207.085 444.042 205.09 444.042 202.491V181.262H439.379V172.144H444.042V161.912H454.344V172.144H462V181.262H454.344V197.41Z" fill="#F4ECD6"/>
<path d="M78.67 232.121C78.2674 232.611 77.7792 233 77.2055 233.289C76.6317 233.577 75.9993 233.722 75.3081 233.722C74.7109 233.722 74.1506 233.613 73.6271 233.395C73.1037 233.177 72.6474 232.88 72.2582 232.504C71.869 232.128 71.562 231.687 71.3372 231.18C71.1124 230.674 71 230.128 71 229.544C71 228.961 71.1124 228.415 71.3372 227.909C71.562 227.402 71.869 226.959 72.2582 226.58C72.6474 226.201 73.1037 225.904 73.6271 225.689C74.1506 225.475 74.7109 225.367 75.3081 225.367C75.9993 225.367 76.6317 225.512 77.2055 225.8C77.7792 226.089 78.2573 226.464 78.6398 226.927L77.5628 228.035C77.3145 227.679 76.9941 227.392 76.6015 227.174C76.209 226.956 75.7778 226.847 75.3081 226.847C74.9323 226.847 74.5783 226.919 74.2462 227.063C73.914 227.208 73.6238 227.402 73.3755 227.647C73.1272 227.892 72.9309 228.177 72.7867 228.503C72.6424 228.828 72.5702 229.175 72.5702 229.544C72.5702 229.907 72.6424 230.251 72.7867 230.576C72.9309 230.902 73.1272 231.187 73.3755 231.432C73.6238 231.677 73.914 231.871 74.2462 232.016C74.5783 232.16 74.9323 232.232 75.3081 232.232C75.8047 232.232 76.2442 232.12 76.6267 231.895C77.0092 231.67 77.3279 231.373 77.5829 231.004L78.67 232.121ZM93.2149 229.544C93.2149 230.122 93.1025 230.665 92.8777 231.175C92.6529 231.685 92.3459 232.128 91.9567 232.504C91.5675 232.88 91.1146 233.177 90.5978 233.395C90.0811 233.613 89.5309 233.722 88.9471 233.722C88.3633 233.722 87.8113 233.613 87.2913 233.395C86.7712 233.177 86.3166 232.88 85.9274 232.504C85.5382 232.128 85.2312 231.687 85.0064 231.18C84.7816 230.674 84.6692 230.128 84.6692 229.544C84.6692 228.961 84.7816 228.414 85.0064 227.904C85.2312 227.394 85.5382 226.951 85.9274 226.575C86.3166 226.199 86.7712 225.904 87.2913 225.689C87.8113 225.475 88.3633 225.367 88.9471 225.367C89.5309 225.367 90.0811 225.475 90.5978 225.689C91.1146 225.904 91.5675 226.201 91.9567 226.58C92.3459 226.959 92.6529 227.402 92.8777 227.909C93.1025 228.415 93.2149 228.961 93.2149 229.544ZM91.6447 229.544C91.6447 229.175 91.5742 228.828 91.4333 228.503C91.2924 228.177 91.0995 227.892 90.8545 227.647C90.6096 227.402 90.3227 227.208 89.9939 227.063C89.6651 226.919 89.3162 226.847 88.9471 226.847C88.5713 226.847 88.219 226.919 87.8902 227.063C87.5614 227.208 87.2745 227.402 87.0296 227.647C86.7846 227.892 86.5917 228.177 86.4508 228.503C86.3099 228.828 86.2394 229.175 86.2394 229.544C86.2394 229.907 86.3099 230.252 86.4508 230.581C86.5917 230.91 86.7846 231.197 87.0296 231.442C87.2745 231.687 87.5614 231.881 87.8902 232.026C88.219 232.17 88.5713 232.242 88.9471 232.242C89.3162 232.242 89.6651 232.17 89.9939 232.026C90.3227 231.881 90.6096 231.687 90.8545 231.442C91.0995 231.197 91.2924 230.91 91.4333 230.581C91.5742 230.252 91.6447 229.907 91.6447 229.544ZM108.283 233.571H106.753V228.196L104.217 232.474L101.781 228.155V233.571H100.251V225.518H102.012L104.247 229.514L106.582 225.518H108.283V233.571ZM123.865 229.544C123.865 230.122 123.752 230.665 123.528 231.175C123.303 231.685 122.996 232.128 122.607 232.504C122.217 232.88 121.764 233.177 121.248 233.395C120.731 233.613 120.181 233.722 119.597 233.722C119.013 233.722 118.461 233.613 117.941 233.395C117.421 233.177 116.967 232.88 116.577 232.504C116.188 232.128 115.881 231.687 115.656 231.18C115.432 230.674 115.319 230.128 115.319 229.544C115.319 228.961 115.432 228.414 115.656 227.904C115.881 227.394 116.188 226.951 116.577 226.575C116.967 226.199 117.421 225.904 117.941 225.689C118.461 225.475 119.013 225.367 119.597 225.367C120.181 225.367 120.731 225.475 121.248 225.689C121.764 225.904 122.217 226.201 122.607 226.58C122.996 226.959 123.303 227.402 123.528 227.909C123.752 228.415 123.865 228.961 123.865 229.544ZM122.295 229.544C122.295 229.175 122.224 228.828 122.083 228.503C121.942 228.177 121.749 227.892 121.504 227.647C121.26 227.402 120.973 227.208 120.644 227.063C120.315 226.919 119.966 226.847 119.597 226.847C119.221 226.847 118.869 226.919 118.54 227.063C118.211 227.208 117.924 227.402 117.68 227.647C117.435 227.892 117.242 228.177 117.101 228.503C116.96 228.828 116.889 229.175 116.889 229.544C116.889 229.907 116.96 230.252 117.101 230.581C117.242 230.91 117.435 231.197 117.68 231.442C117.924 231.687 118.211 231.881 118.54 232.026C118.869 232.17 119.221 232.242 119.597 232.242C119.966 232.242 120.315 232.17 120.644 232.026C120.973 231.881 121.26 231.687 121.504 231.442C121.749 231.197 121.942 230.91 122.083 230.581C122.224 230.252 122.295 229.907 122.295 229.544ZM132.199 233.571C132.199 233.732 132.176 233.884 132.129 234.029C132.082 234.173 132.013 234.301 131.922 234.411C131.832 234.522 131.718 234.609 131.58 234.673C131.443 234.737 131.283 234.769 131.102 234.769C131.035 234.769 130.97 234.762 130.906 234.748C130.842 234.735 130.783 234.722 130.73 234.708V234.597C130.924 234.564 131.082 234.473 131.203 234.326C131.324 234.178 131.384 234.007 131.384 233.812C131.384 233.779 131.381 233.739 131.374 233.692C131.367 233.645 131.357 233.604 131.344 233.571H130.699V232.071H132.199V233.571ZM155.602 232.121C155.199 232.611 154.711 233 154.137 233.289C153.564 233.577 152.931 233.722 152.24 233.722C151.643 233.722 151.082 233.613 150.559 233.395C150.036 233.177 149.579 232.88 149.19 232.504C148.801 232.128 148.494 231.687 148.269 231.18C148.044 230.674 147.932 230.128 147.932 229.544C147.932 228.961 148.044 228.415 148.269 227.909C148.494 227.402 148.801 226.959 149.19 226.58C149.579 226.201 150.036 225.904 150.559 225.689C151.082 225.475 151.643 225.367 152.24 225.367C152.931 225.367 153.564 225.512 154.137 225.8C154.711 226.089 155.189 226.464 155.572 226.927L154.495 228.035C154.246 227.679 153.926 227.392 153.533 227.174C153.141 226.956 152.71 226.847 152.24 226.847C151.864 226.847 151.51 226.919 151.178 227.063C150.846 227.208 150.556 227.402 150.307 227.647C150.059 227.892 149.863 228.177 149.719 228.503C149.574 228.828 149.502 229.175 149.502 229.544C149.502 229.907 149.574 230.251 149.719 230.576C149.863 230.902 150.059 231.187 150.307 231.432C150.556 231.677 150.846 231.871 151.178 232.016C151.51 232.16 151.864 232.232 152.24 232.232C152.737 232.232 153.176 232.12 153.559 231.895C153.941 231.67 154.26 231.373 154.515 231.004L155.602 232.121ZM169.291 225.518V229.887C169.291 230.424 169.211 230.923 169.05 231.387C168.889 231.85 168.655 232.254 168.35 232.599C168.045 232.945 167.672 233.217 167.233 233.415C166.793 233.613 166.292 233.712 165.728 233.712C165.178 233.712 164.681 233.614 164.238 233.42C163.795 233.225 163.418 232.958 163.106 232.62C162.794 232.281 162.554 231.881 162.386 231.422C162.218 230.962 162.135 230.467 162.135 229.937V225.518H163.695V229.947C163.695 230.256 163.738 230.546 163.826 230.818C163.913 231.09 164.04 231.326 164.208 231.527C164.376 231.729 164.586 231.888 164.837 232.006C165.089 232.123 165.376 232.182 165.698 232.182C166.04 232.182 166.337 232.126 166.589 232.016C166.84 231.905 167.048 231.751 167.213 231.553C167.377 231.355 167.501 231.121 167.585 230.853C167.669 230.585 167.711 230.289 167.711 229.967V225.518H169.291ZM184.078 233.571H182.367L181.622 231.96H177.716L176.961 233.571H175.25L179.055 225.518H180.273L184.078 233.571ZM181.008 230.662L179.669 227.763L178.31 230.662H181.008ZM197.405 233.571H195.875L192.241 227.924V233.571H190.711V225.518H192.462L195.875 230.773V225.518H197.405V233.571ZM211.899 229.544C211.899 230.101 211.805 230.623 211.617 231.11C211.429 231.596 211.168 232.022 210.832 232.388C210.497 232.754 210.096 233.042 209.629 233.254C209.163 233.465 208.655 233.571 208.104 233.571H204.742V225.518H208.104C208.655 225.518 209.163 225.626 209.629 225.84C210.096 226.055 210.497 226.344 210.832 226.706C211.168 227.068 211.429 227.494 211.617 227.984C211.805 228.474 211.899 228.994 211.899 229.544ZM210.319 229.504C210.326 229.128 210.269 228.773 210.148 228.437C210.027 228.102 209.852 227.808 209.624 227.557C209.396 227.305 209.116 227.107 208.784 226.963C208.452 226.818 208.078 226.746 207.662 226.746H206.303V232.242H207.662C208.071 232.242 208.438 232.173 208.764 232.036C209.089 231.898 209.366 231.707 209.594 231.462C209.822 231.217 209.998 230.929 210.123 230.596C210.247 230.264 210.312 229.9 210.319 229.504ZM227.179 229.544C227.179 230.122 227.066 230.665 226.842 231.175C226.617 231.685 226.31 232.128 225.921 232.504C225.531 232.88 225.078 233.177 224.562 233.395C224.045 233.613 223.495 233.722 222.911 233.722C222.327 233.722 221.775 233.613 221.255 233.395C220.735 233.177 220.281 232.88 219.891 232.504C219.502 232.128 219.195 231.687 218.97 231.18C218.745 230.674 218.633 230.128 218.633 229.544C218.633 228.961 218.745 228.414 218.97 227.904C219.195 227.394 219.502 226.951 219.891 226.575C220.281 226.199 220.735 225.904 221.255 225.689C221.775 225.475 222.327 225.367 222.911 225.367C223.495 225.367 224.045 225.475 224.562 225.689C225.078 225.904 225.531 226.201 225.921 226.58C226.31 226.959 226.617 227.402 226.842 227.909C227.066 228.415 227.179 228.961 227.179 229.544ZM225.609 229.544C225.609 229.175 225.538 228.828 225.397 228.503C225.256 228.177 225.063 227.892 224.818 227.647C224.574 227.402 224.287 227.208 223.958 227.063C223.629 226.919 223.28 226.847 222.911 226.847C222.535 226.847 222.183 226.919 221.854 227.063C221.525 227.208 221.238 227.402 220.993 227.647C220.749 227.892 220.556 228.177 220.415 228.503C220.274 228.828 220.203 229.175 220.203 229.544C220.203 229.907 220.274 230.252 220.415 230.581C220.556 230.91 220.749 231.197 220.993 231.442C221.238 231.687 221.525 231.881 221.854 232.026C222.183 232.17 222.535 232.242 222.911 232.242C223.28 232.242 223.629 232.17 223.958 232.026C224.287 231.881 224.574 231.687 224.818 231.442C225.063 231.197 225.256 230.91 225.397 230.581C225.538 230.252 225.609 229.907 225.609 229.544ZM250.531 225.528L247.25 230.279V233.581H245.669V230.259L242.559 225.528H244.371L246.465 228.91L248.649 225.528H250.531ZM273.37 229.544C273.37 230.101 273.276 230.623 273.088 231.11C272.9 231.596 272.639 232.022 272.303 232.388C271.968 232.754 271.567 233.042 271.1 233.254C270.634 233.465 270.126 233.571 269.575 233.571H266.213V225.518H269.575C270.126 225.518 270.634 225.626 271.1 225.84C271.567 226.055 271.968 226.344 272.303 226.706C272.639 227.068 272.9 227.494 273.088 227.984C273.276 228.474 273.37 228.994 273.37 229.544ZM271.79 229.504C271.797 229.128 271.74 228.773 271.619 228.437C271.498 228.102 271.323 227.808 271.095 227.557C270.867 227.305 270.587 227.107 270.255 226.963C269.923 226.818 269.549 226.746 269.133 226.746H267.774V232.242H269.133C269.542 232.242 269.909 232.173 270.235 232.036C270.56 231.898 270.837 231.707 271.065 231.462C271.293 231.217 271.469 230.929 271.594 230.596C271.718 230.264 271.783 229.9 271.79 229.504ZM288.65 229.544C288.65 230.122 288.537 230.665 288.313 231.175C288.088 231.685 287.781 232.128 287.392 232.504C287.002 232.88 286.549 233.177 286.033 233.395C285.516 233.613 284.966 233.722 284.382 233.722C283.798 233.722 283.246 233.613 282.726 233.395C282.206 233.177 281.752 232.88 281.362 232.504C280.973 232.128 280.666 231.687 280.441 231.18C280.217 230.674 280.104 230.128 280.104 229.544C280.104 228.961 280.217 228.414 280.441 227.904C280.666 227.394 280.973 226.951 281.362 226.575C281.752 226.199 282.206 225.904 282.726 225.689C283.246 225.475 283.798 225.367 284.382 225.367C284.966 225.367 285.516 225.475 286.033 225.689C286.549 225.904 287.002 226.201 287.392 226.58C287.781 226.959 288.088 227.402 288.313 227.909C288.537 228.415 288.65 228.961 288.65 229.544ZM287.08 229.544C287.08 229.175 287.009 228.828 286.868 228.503C286.727 228.177 286.534 227.892 286.289 227.647C286.045 227.402 285.758 227.208 285.429 227.063C285.1 226.919 284.751 226.847 284.382 226.847C284.006 226.847 283.654 226.919 283.325 227.063C282.996 227.208 282.709 227.402 282.465 227.647C282.22 227.892 282.027 228.177 281.886 228.503C281.745 228.828 281.674 229.175 281.674 229.544C281.674 229.907 281.745 230.252 281.886 230.581C282.027 230.91 282.22 231.197 282.465 231.442C282.709 231.687 282.996 231.881 283.325 232.026C283.654 232.17 284.006 232.242 284.382 232.242C284.751 232.242 285.1 232.17 285.429 232.026C285.758 231.881 286.045 231.687 286.289 231.442C286.534 231.197 286.727 230.91 286.868 230.581C287.009 230.252 287.08 229.907 287.08 229.544ZM302.379 233.571H300.849L297.216 227.924V233.571H295.686V225.518H297.437L300.849 230.773V225.518H302.379V233.571ZM316.874 229.544C316.874 230.101 316.78 230.623 316.592 231.11C316.404 231.596 316.143 232.022 315.807 232.388C315.471 232.754 315.071 233.042 314.604 233.254C314.138 233.465 313.629 233.571 313.079 233.571H309.717V225.518H313.079C313.629 225.518 314.138 225.626 314.604 225.84C315.071 226.055 315.471 226.344 315.807 226.706C316.143 227.068 316.404 227.494 316.592 227.984C316.78 228.474 316.874 228.994 316.874 229.544ZM315.294 229.504C315.3 229.128 315.243 228.773 315.123 228.437C315.002 228.102 314.827 227.808 314.599 227.557C314.371 227.305 314.091 227.107 313.759 226.963C313.426 226.818 313.052 226.746 312.636 226.746H311.277V232.242H312.636C313.046 232.242 313.413 232.173 313.739 232.036C314.064 231.898 314.341 231.707 314.569 231.462C314.797 231.217 314.973 230.929 315.097 230.596C315.222 230.264 315.287 229.9 315.294 229.504ZM329.225 233.571H323.91V225.528H329.225V226.817H325.44V228.739H329.174V229.997H325.44V232.212H329.225V233.571ZM353.443 229.544C353.443 230.021 353.367 230.472 353.216 230.898C353.065 231.324 352.849 231.715 352.567 232.071L353.372 232.866L352.446 233.792L351.621 232.957C351.278 233.192 350.903 233.376 350.493 233.51C350.084 233.645 349.651 233.712 349.195 233.712C348.611 233.712 348.062 233.603 347.549 233.385C347.036 233.166 346.586 232.868 346.2 232.489C345.814 232.11 345.511 231.668 345.289 231.165C345.068 230.662 344.957 230.122 344.957 229.544C344.957 228.967 345.068 228.426 345.289 227.919C345.511 227.412 345.814 226.969 346.2 226.59C346.586 226.211 347.036 225.912 347.549 225.694C348.062 225.476 348.611 225.367 349.195 225.367C349.779 225.367 350.329 225.476 350.846 225.694C351.362 225.912 351.814 226.211 352.199 226.59C352.585 226.969 352.889 227.412 353.11 227.919C353.332 228.426 353.443 228.967 353.443 229.544ZM351.923 229.544C351.923 229.175 351.85 228.826 351.706 228.498C351.562 228.169 351.367 227.88 351.122 227.632C350.877 227.384 350.589 227.187 350.257 227.043C349.925 226.899 349.571 226.827 349.195 226.827C348.819 226.827 348.467 226.899 348.138 227.043C347.809 227.187 347.521 227.384 347.272 227.632C347.024 227.88 346.829 228.169 346.688 228.498C346.548 228.826 346.477 229.175 346.477 229.544C346.477 229.914 346.548 230.263 346.688 230.591C346.829 230.92 347.024 231.207 347.272 231.452C347.521 231.697 347.809 231.891 348.138 232.036C348.467 232.18 348.819 232.252 349.195 232.252C349.45 232.252 349.693 232.219 349.925 232.152C350.156 232.084 350.376 231.99 350.584 231.87L349.829 231.135L350.755 230.209L351.5 230.974C351.782 230.538 351.923 230.061 351.923 229.544ZM367.534 225.518V229.887C367.534 230.424 367.454 230.923 367.293 231.387C367.132 231.85 366.899 232.254 366.593 232.599C366.288 232.945 365.916 233.217 365.476 233.415C365.036 233.613 364.535 233.712 363.971 233.712C363.421 233.712 362.924 233.614 362.481 233.42C362.039 233.225 361.661 232.958 361.349 232.62C361.037 232.281 360.797 231.881 360.629 231.422C360.462 230.962 360.378 230.467 360.378 229.937V225.518H361.938V229.947C361.938 230.256 361.982 230.546 362.069 230.818C362.156 231.09 362.284 231.326 362.451 231.527C362.619 231.729 362.829 231.888 363.08 232.006C363.332 232.123 363.619 232.182 363.941 232.182C364.283 232.182 364.58 232.126 364.832 232.016C365.083 231.905 365.292 231.751 365.456 231.553C365.62 231.355 365.744 231.121 365.828 230.853C365.912 230.585 365.954 230.289 365.954 229.967V225.518H367.534ZM376.231 233.571H374.671V225.528H376.231V233.571ZM388.884 233.571H383.569V225.528H388.884V226.817H385.099V228.739H388.833V229.997H385.099V232.212H388.884V233.571ZM401.979 233.571H400.258L399.684 231.739C399.624 231.537 399.548 231.353 399.458 231.185C399.367 231.017 399.258 230.873 399.131 230.752C399.003 230.632 398.85 230.538 398.673 230.471C398.495 230.403 398.285 230.37 398.043 230.37H397.46V233.571H395.92V225.528L399.1 225.518C399.443 225.518 399.761 225.577 400.057 225.694C400.352 225.812 400.607 225.975 400.822 226.183C401.036 226.391 401.204 226.636 401.325 226.917C401.446 227.199 401.506 227.505 401.506 227.833C401.506 228.068 401.469 228.296 401.395 228.518C401.322 228.739 401.218 228.944 401.083 229.132C400.949 229.32 400.79 229.486 400.605 229.63C400.421 229.774 400.218 229.883 399.996 229.957C400.251 230.051 400.459 230.187 400.62 230.365C400.781 230.543 400.909 230.756 401.003 231.004C401.05 231.118 401.093 231.232 401.134 231.346C401.174 231.46 401.216 231.579 401.259 231.704C401.303 231.828 401.35 231.962 401.4 232.106C401.451 232.25 401.506 232.41 401.566 232.584C401.64 232.806 401.709 232.995 401.773 233.153C401.837 233.311 401.905 233.45 401.979 233.571ZM399.936 227.944C399.936 227.756 399.901 227.585 399.83 227.431C399.76 227.276 399.664 227.142 399.543 227.028C399.422 226.914 399.28 226.825 399.115 226.761C398.951 226.698 398.775 226.666 398.587 226.666H397.46V229.172H398.587C398.775 229.172 398.951 229.144 399.115 229.087C399.28 229.029 399.422 228.947 399.543 228.84C399.664 228.733 399.76 228.603 399.83 228.452C399.901 228.301 399.936 228.132 399.936 227.944ZM416.886 233.571H415.175L414.43 231.96H410.525L409.77 233.571H408.059L411.864 225.518H413.082L416.886 233.571ZM413.816 230.662L412.478 227.763L411.119 230.662H413.816ZM428.895 231.457C428.895 231.759 428.829 232.046 428.698 232.318C428.568 232.589 428.385 232.829 428.15 233.037C427.915 233.245 427.637 233.411 427.314 233.536C426.992 233.66 426.637 233.722 426.247 233.722C425.899 233.722 425.585 233.702 425.306 233.661C425.028 233.621 424.766 233.557 424.521 233.47C424.276 233.383 424.041 233.27 423.817 233.133C423.592 232.995 423.359 232.829 423.117 232.635L424.224 231.517C424.546 231.786 424.862 231.975 425.17 232.086C425.479 232.197 425.815 232.252 426.177 232.252C426.325 232.252 426.464 232.23 426.595 232.187C426.726 232.143 426.84 232.084 426.937 232.011C427.034 231.937 427.111 231.85 427.168 231.749C427.226 231.648 427.254 231.537 427.254 231.417C427.254 231.289 427.231 231.175 427.184 231.074C427.137 230.974 427.053 230.877 426.932 230.783C426.811 230.689 426.643 230.593 426.429 230.496C426.214 230.398 425.939 230.289 425.603 230.169C425.308 230.061 425.025 229.939 424.753 229.801C424.481 229.664 424.243 229.498 424.038 229.303C423.833 229.108 423.669 228.88 423.545 228.618C423.421 228.357 423.359 228.048 423.359 227.692C423.359 227.35 423.427 227.035 423.565 226.746C423.703 226.458 423.89 226.211 424.129 226.006C424.367 225.802 424.645 225.642 424.964 225.528C425.283 225.414 425.627 225.357 425.996 225.357C426.613 225.357 427.133 225.438 427.556 225.599C427.979 225.76 428.355 225.995 428.683 226.303L427.596 227.401C427.395 227.206 427.17 227.057 426.922 226.953C426.674 226.849 426.382 226.797 426.046 226.797C425.892 226.797 425.749 226.82 425.618 226.867C425.488 226.914 425.375 226.976 425.281 227.053C425.187 227.13 425.112 227.221 425.055 227.325C424.998 227.429 424.969 227.538 424.969 227.652C424.969 227.78 424.996 227.895 425.05 227.999C425.103 228.103 425.194 228.204 425.321 228.301C425.449 228.399 425.618 228.496 425.83 228.593C426.041 228.691 426.305 228.796 426.62 228.91C427.023 229.051 427.368 229.206 427.657 229.373C427.945 229.541 428.18 229.726 428.361 229.927C428.542 230.128 428.677 230.355 428.764 230.606C428.851 230.858 428.895 231.142 428.895 231.457Z" fill="#393E46"/>
</svg>
